<mxfile host="app.diagrams.net" agent="Mozilla/5.0 (Windows NT 10.0; Win64; x64; rv:143.0) Gecko/20100101 Firefox/143.0" version="27.2.0">
  <diagram name="Page-1" id="h99UJlh36h8hWfJjW7za">
    <mxGraphModel dx="640" dy="1209" grid="1" gridSize="10" guides="1" tooltips="1" connect="1" arrows="1" fold="1" page="1" pageScale="1" pageWidth="850" pageHeight="1100" math="0" shadow="0">
      <root>
        <mxCell id="0" />
        <mxCell id="1" parent="0" />
        <mxCell id="6S_FqRWej_wycWH-i1FU-7" style="edgeStyle=orthogonalEdgeStyle;rounded=0;orthogonalLoop=1;jettySize=auto;html=1;entryX=0.5;entryY=0;entryDx=0;entryDy=0;" edge="1" parent="1" source="6S_FqRWej_wycWH-i1FU-1" target="6S_FqRWej_wycWH-i1FU-6">
          <mxGeometry relative="1" as="geometry" />
        </mxCell>
        <mxCell id="6S_FqRWej_wycWH-i1FU-1" value="Usuario" style="rounded=0;whiteSpace=wrap;html=1;" vertex="1" parent="1">
          <mxGeometry x="360" y="40" width="120" height="60" as="geometry" />
        </mxCell>
        <mxCell id="6S_FqRWej_wycWH-i1FU-10" style="edgeStyle=orthogonalEdgeStyle;rounded=0;orthogonalLoop=1;jettySize=auto;html=1;entryX=0;entryY=0.5;entryDx=0;entryDy=0;startArrow=classic;startFill=1;" edge="1" parent="1" source="6S_FqRWej_wycWH-i1FU-2" target="6S_FqRWej_wycWH-i1FU-6">
          <mxGeometry relative="1" as="geometry" />
        </mxCell>
        <mxCell id="6S_FqRWej_wycWH-i1FU-11" style="edgeStyle=orthogonalEdgeStyle;rounded=0;orthogonalLoop=1;jettySize=auto;html=1;entryX=0.5;entryY=0;entryDx=0;entryDy=0;" edge="1" parent="1" target="6S_FqRWej_wycWH-i1FU-3">
          <mxGeometry relative="1" as="geometry">
            <mxPoint x="229.5" y="550" as="targetPoint" />
            <mxPoint x="229.5" y="260" as="sourcePoint" />
          </mxGeometry>
        </mxCell>
        <mxCell id="6S_FqRWej_wycWH-i1FU-2" value="Gestor de ProgresiÃ³n" style="rounded=0;whiteSpace=wrap;html=1;" vertex="1" parent="1">
          <mxGeometry x="170" y="200" width="120" height="60" as="geometry" />
        </mxCell>
        <mxCell id="6S_FqRWej_wycWH-i1FU-12" style="edgeStyle=orthogonalEdgeStyle;rounded=0;orthogonalLoop=1;jettySize=auto;html=1;entryX=0;entryY=0.5;entryDx=0;entryDy=0;startArrow=classic;startFill=1;exitX=0;exitY=0.5;exitDx=0;exitDy=0;" edge="1" parent="1" source="6S_FqRWej_wycWH-i1FU-3" target="6S_FqRWej_wycWH-i1FU-1">
          <mxGeometry relative="1" as="geometry">
            <Array as="points">
              <mxPoint x="120" y="460" />
              <mxPoint x="120" y="70" />
            </Array>
          </mxGeometry>
        </mxCell>
        <mxCell id="6S_FqRWej_wycWH-i1FU-3" value="Sistema de recompensas" style="rounded=0;whiteSpace=wrap;html=1;" vertex="1" parent="1">
          <mxGeometry x="170" y="430" width="120" height="60" as="geometry" />
        </mxCell>
        <mxCell id="6S_FqRWej_wycWH-i1FU-9" style="edgeStyle=orthogonalEdgeStyle;rounded=0;orthogonalLoop=1;jettySize=auto;html=1;entryX=0.899;entryY=1.028;entryDx=0;entryDy=0;entryPerimeter=0;" edge="1" parent="1" source="6S_FqRWej_wycWH-i1FU-5" target="6S_FqRWej_wycWH-i1FU-2">
          <mxGeometry relative="1" as="geometry">
            <mxPoint x="240" y="210" as="targetPoint" />
          </mxGeometry>
        </mxCell>
        <mxCell id="6S_FqRWej_wycWH-i1FU-5" value="Tienda/Mejoras" style="rounded=0;whiteSpace=wrap;html=1;" vertex="1" parent="1">
          <mxGeometry x="360" y="360" width="120" height="60" as="geometry" />
        </mxCell>
        <mxCell id="6S_FqRWej_wycWH-i1FU-8" style="edgeStyle=orthogonalEdgeStyle;rounded=0;orthogonalLoop=1;jettySize=auto;html=1;entryX=0.5;entryY=0;entryDx=0;entryDy=0;" edge="1" parent="1" source="6S_FqRWej_wycWH-i1FU-6" target="6S_FqRWej_wycWH-i1FU-5">
          <mxGeometry relative="1" as="geometry" />
        </mxCell>
        <mxCell id="6S_FqRWej_wycWH-i1FU-6" value="&lt;div&gt;Sistema de Juego&lt;/div&gt;" style="rounded=0;whiteSpace=wrap;html=1;" vertex="1" parent="1">
          <mxGeometry x="360" y="200" width="120" height="60" as="geometry" />
        </mxCell>
      </root>
    </mxGraphModel>
  </diagram>
</mxfile>
